<svg width="250" height="308" viewBox="0 0 250 308" fill="none" xmlns="http://www.w3.org/2000/svg">
<path fill-rule="evenodd" clip-rule="evenodd" d="M245.012 41.8214C247.698 40.6703 249.54 37.9404 249.924 34.871C249.924 34.6791 249.943 34.0187 249.962 33.3583C249.981 32.6979 250 32.0375 250 31.8457C250 29.9272 249.233 28.0088 248.465 26.0904C247.698 24.5557 246.163 23.4046 244.628 23.021C243.485 22.7322 239.631 22.4892 239.631 22.4892C235.728 22.2536 231.967 22.2536 228.13 22.2536C222.375 21.8699 217.003 21.4862 211.632 19.9515C208.562 19.1841 205.877 18.0331 203.574 16.1147C202.423 15.3473 201.656 14.1963 201.656 12.6615V6.5226V3.06946L200.889 3.83683L197.819 6.90629C196.317 8.70919 194.814 10.5121 193.681 12.4993C193.303 9.78043 190.913 4.22051 188.994 0C188.923 0.149844 188.847 0.296504 188.773 0.440245C188.619 0.737275 188.472 1.02184 188.38 1.29628C187.996 2.44732 187.67 3.46614 187.344 4.48496C187.018 5.50378 186.692 6.5226 186.309 7.67365C185.925 9.20838 185.838 11.1268 185.925 11.8942C186.012 12.6615 186.2 13.4266 186.309 13.8126C186.417 14.1986 186.309 14.5799 185.925 14.9636C184.007 16.4984 182.856 18.4168 181.705 20.3352C180.937 21.8699 180.586 23.3873 180.419 24.9183C180.227 26.6449 180.165 28.3767 180.102 30.1086C180.04 31.8404 179.978 33.5722 179.786 35.2988C179.786 37.9846 178.635 39.5193 175.949 40.2867C175.728 40.3606 175.492 40.4344 175.247 40.5111C174.221 40.8324 173.042 41.2018 172.112 41.8214C170.85 42.6383 169.81 44.1235 169.427 45.6582C169.319 46.341 169.319 46.709 169.427 47.193C169.582 48.0853 169.427 48.7277 169.043 49.495C168.276 51.0298 167.404 52.1209 166.357 53.3319C164.055 56.0177 161.369 58.7034 158.684 61.0055C157.533 62.1566 156.381 63.2117 155.23 64.2668C154.079 65.322 152.928 66.3771 151.777 67.5281C141.532 78.0299 131.115 88.3607 120.756 98.6346C115.597 103.75 110.453 108.852 105.352 113.954C102.282 117.023 99.3087 120.093 96.3351 123.162C93.3616 126.232 90.3881 129.301 87.3186 132.37C79.6449 139.66 71.5876 146.95 63.1466 153.089C62.3738 153.605 61.6119 154.12 60.8553 154.631C57.1041 157.168 53.4847 159.615 49.334 161.53C45.8809 163.065 42.4277 164.216 38.9746 165.367C38.4892 165.519 38.0015 165.671 37.5119 165.823C31.8091 167.596 25.8581 169.447 20.5578 172.273C15.9536 174.576 11.7331 177.261 8.27997 181.098C3.67578 185.702 0.990006 191.458 0.22264 197.98C0.0466649 199.001 -0.00347233 202.266 0.000183617 203.467C0.00383956 204.668 0.0571445 206.799 0.22264 207.956C0.606323 211.025 1.37369 214.095 2.52474 217.164C4.44315 221.768 7.51261 224.838 11.7331 226.756C15.9536 228.675 19.0231 228.675 22.8599 227.907C23.0816 227.834 23.3175 227.76 23.5621 227.683C24.5878 227.362 25.7673 226.992 26.6967 226.373C26.7873 226.282 26.8993 226.192 27.0175 226.096C27.4 225.786 27.8478 225.424 27.8478 224.838C27.4641 224.838 26.6967 224.454 26.3131 224.071C24.3946 222.536 23.2436 220.617 22.0925 218.315C21.1673 216.465 20.4899 214.366 19.8612 212.419C19.7078 211.943 19.5573 211.477 19.4068 211.025C18.6394 208.723 18.2557 207.956 17.1047 206.421C15.9536 205.27 14.8026 204.503 12.8842 204.503C10.9658 204.503 9.67134 204.753 8.61507 205.27C7.55879 205.788 5.82052 206.785 4.44061 208.179C3.95111 208.605 3.40038 209.107 3.40038 209.107L3.2921 208.723C2.90842 205.27 2.90842 201.433 3.2921 197.98C4.44315 192.225 6.74524 187.621 10.5821 183.4C13.2678 180.714 16.721 178.412 20.1741 176.494C23.1686 174.997 26.3968 173.733 29.4939 172.521C30.3651 172.18 31.2259 171.843 32.0683 171.506C33.4112 171.122 34.6582 170.643 35.9051 170.163C37.1521 169.684 38.3991 169.204 39.7419 168.82C40.5093 168.437 40.893 168.437 40.893 169.204C40.893 169.456 40.8238 169.543 40.7129 169.681C40.6551 169.753 40.5859 169.84 40.5093 169.971C40.3654 170.218 40.0267 170.622 39.639 171.085C39.4243 171.341 39.1946 171.615 38.9746 171.89C34.3704 178.029 32.0683 184.935 32.8357 192.609C33.2193 195.678 33.9867 198.748 35.1378 201.433C37.4399 206.805 40.5093 211.409 44.3461 215.63C47.0319 218.315 49.7177 220.617 53.1708 222.536C53.3627 222.728 53.6504 222.92 53.9382 223.111C54.226 223.303 54.5137 223.495 54.7056 223.687C57.3913 226.373 59.3098 229.826 60.4608 233.279C60.5945 233.663 60.8445 234.43 60.8445 234.814C60.8445 235.965 60.4608 237.116 60.0771 237.883C57.3914 242.104 55.0894 246.324 52.7874 250.544L52.7872 250.545C52.4035 251.312 51.6361 251.312 51.2524 251.312C49.5259 251.312 47.7993 251.475 46.0727 251.637C44.3461 251.8 42.6196 251.962 40.893 251.962C39.772 251.962 39.0149 251.709 37.9129 251.342L37.8235 251.312C35.5214 250.161 33.603 250.545 31.3009 251.696C29.7662 252.463 28.6152 253.614 27.4641 254.765C26.6967 255.533 26.2844 256.399 26.1595 257.028C26.1347 257.152 26.1118 257.252 26.0902 257.345C26.0029 257.725 25.9352 258.018 25.8393 259.56C25.7675 260.715 25.8144 261.659 25.8633 262.645C25.8959 263.3 25.9294 263.974 25.9294 264.741C25.9294 265.508 26.0251 266.273 26.1209 267.039C26.217 267.806 26.3131 268.574 26.3131 269.345C26.3131 270.496 27.0804 271.264 28.2315 270.496C28.8819 270.171 29.3229 269.75 29.8533 269.243C29.9487 269.152 30.047 269.058 30.1499 268.961C33.9867 265.508 38.5909 263.59 43.5788 262.823C44.3461 262.637 45.8809 262.439 45.8809 262.439C47.0319 262.439 47.0319 262.823 47.0319 263.59V263.974C46.6482 266.276 47.0319 268.961 48.9503 272.031C49.1422 272.798 49.334 273.47 49.5259 274.141C49.7177 274.813 49.9095 275.484 50.1014 276.251C50.4851 278.554 49.7177 280.472 47.7993 281.623C47.5508 281.758 47.3129 281.894 47.0793 282.027C46.3219 282.459 45.6095 282.865 44.7298 283.158C42.4277 283.925 40.5093 284.692 38.5909 285.843C35.9051 286.995 33.9867 288.913 32.0683 290.831C30.9172 292.366 30.5336 293.901 30.9173 295.436C31.3009 296.97 31.6846 298.505 32.8357 300.04C34.3704 302.342 36.6725 304.644 38.5909 306.562C38.9746 307.33 39.3583 307.33 40.1256 306.562L40.893 305.795C41.258 305.347 41.4774 304.814 41.6968 304.281C41.8065 304.015 41.9161 303.749 42.044 303.493C42.4277 302.726 42.7155 301.958 43.0032 301.191C43.291 300.423 43.5788 299.656 43.9625 298.889C45.8809 295.436 48.183 292.75 52.0198 291.215C53.1708 290.831 54.7056 290.448 56.2403 290.064C57.775 289.68 58.5424 288.913 59.3098 287.762C60.0771 286.611 60.2342 285.843 60.4608 284.692C60.8445 282.39 61.2282 280.088 61.2282 277.786C61.2282 277.385 61.2251 276.997 61.2222 276.616C61.2081 274.814 61.1954 273.188 61.5122 271.287C61.676 270.153 61.9955 268.578 62.3792 267.427C62.7629 265.508 64.2976 264.357 66.216 264.357C66.216 264.357 71.5876 263.59 73.8897 262.823C76.5755 261.671 78.4939 260.137 79.6449 257.451C80.0286 256.7 80.2958 255.931 80.4123 255.149C80.796 253.23 81.1797 251.312 81.947 249.394C82.7144 247.092 83.8654 245.173 85.4002 243.638C85.9015 243.124 86.2006 242.716 86.5621 242.223C86.6772 242.066 86.7986 241.9 86.9349 241.72C88.9812 239.162 90.6865 236.263 92.3917 233.364C93.2444 231.915 94.097 230.465 94.9922 229.058C95.3759 228.291 96.1266 227.89 96.5038 227.724C96.881 227.559 97.2867 227.463 97.6348 227.428C106.076 225.51 114.176 222.536 121.85 218.699C129.524 214.862 136.814 210.258 143.72 205.27C148.324 201.945 152.587 198.279 156.85 194.612C158.982 192.779 161.114 190.946 163.288 189.155C164.822 187.621 166.357 186.47 168.276 185.319C169.634 184.3 170.091 184.784 170.71 185.441C170.79 185.526 170.873 185.614 170.961 185.702L175.566 191.458C176.333 192.417 177.1 193.472 177.868 194.527C178.635 195.582 179.402 196.637 180.17 197.597C181.705 199.899 180.937 201.433 179.402 202.968C178.251 204.119 177.1 204.503 175.566 204.886C174.415 205.078 173.359 205.27 172.304 205.462C171.249 205.654 170.194 205.846 169.043 206.038C165.206 206.805 163.288 209.107 164.055 213.327C164.439 214.478 164.822 216.013 165.206 217.547L165.206 217.548C165.398 218.315 165.686 219.083 165.974 219.85C166.261 220.617 166.549 221.385 166.741 222.152C167.508 224.454 166.741 225.605 165.206 226.756L164.055 227.907C162.904 229.058 162.52 230.977 163.288 232.512C163.48 232.703 163.576 232.895 163.671 233.087C163.767 233.279 163.863 233.471 164.055 233.663C164.822 234.43 165.206 235.581 165.206 236.348C165.59 236.732 165.59 237.116 165.59 237.499C166.741 241.72 169.427 244.406 173.647 245.173C176.333 245.941 178.635 245.557 180.937 245.173C181.705 245.173 181.705 244.406 181.705 243.638V242.871C181.321 240.953 181.122 239.357 180.937 237.499C180.553 233.279 181.321 229.442 182.472 225.605C183.047 223.879 183.623 222.248 184.198 220.618C184.774 218.987 185.349 217.356 185.925 215.63C186.692 212.944 188.227 211.025 190.146 209.107C190.913 208.34 191.776 207.668 192.639 206.997C193.503 206.325 194.366 205.654 195.133 204.886C195.325 204.695 195.517 204.599 195.709 204.503C195.901 204.407 196.093 204.311 196.284 204.119C196.393 204.294 196.452 204.389 196.521 204.477C196.603 204.582 196.698 204.677 196.907 204.886L196.907 204.887C197.291 205.27 197.291 205.27 197.819 205.654C200.505 209.874 204.725 212.176 209.33 213.711C209.934 213.919 210.481 214.095 210.864 214.095C211.861 214.095 211.995 213.807 212.262 213.232C212.303 213.143 212.348 213.047 212.399 212.944C212.65 212.192 212.573 211.604 212.49 210.965C212.445 210.626 212.399 210.273 212.399 209.874C212.015 204.119 212.399 198.364 213.934 192.609C215.852 184.551 218.922 176.878 222.759 169.588C223.678 167.985 224.677 166.135 225.444 164.216C226.212 162.298 226.328 159.872 225.561 157.954C224.89 156.13 223.91 154.24 222.759 152.706C219.689 148.101 216.62 143.881 213.55 139.66C213.166 138.893 213.166 138.152 213.166 137.358C213.294 136.207 213.465 135.056 213.635 133.905C213.976 131.603 214.318 129.301 214.318 126.999V117.407V115.488C214.318 113.759 214.211 112.187 214.101 110.571C214.04 109.677 213.979 108.77 213.934 107.815V97.4554C213.934 93.6185 214.318 90.1654 215.085 86.3286C216.236 79.806 218.154 72.8997 220.84 66.7608C223.526 61.0055 226.979 55.634 231.583 51.0298C235.42 47.193 240.024 44.1235 245.012 41.8214ZM210.036 170.51C210.256 170.579 210.519 170.662 210.864 170.739C210.864 170.739 206.644 178.796 205.109 182.249C205.027 182.437 204.985 182.532 204.938 182.626C204.889 182.724 204.835 182.82 204.725 183.017C203.383 180.715 201.944 178.412 200.505 176.11C199.066 173.808 197.627 171.506 196.284 169.204C196.668 168.82 197.052 168.82 197.435 168.82C198.97 168.82 200.889 168.994 202.423 169.204L209.33 170.355C209.545 170.355 209.754 170.421 210.036 170.51Z" fill="#02C758"/>
</svg>
