<svg width="834" height="592" viewBox="0 0 834 592" fill="none" xmlns="http://www.w3.org/2000/svg">
<path fill-rule="evenodd" clip-rule="evenodd" d="M527.033 0H125.191C56.0516 0 0.000149003 56.0353 0.000149003 125.155V284.913C-0.0517804 319.007 13.4717 351.753 37.5903 375.901L39.0777 377.366C63.0457 400.598 95.1397 413.62 128.578 413.62H178.39L178.39 463.459C178.39 534.449 235.957 592 306.968 592H789.929C814.269 592 834 572.274 834 547.942V306.88L833.983 304.755C832.847 234.745 775.723 178.339 705.422 178.339H655.61L655.61 128.541C655.61 57.5507 598.043 0 527.033 0ZM527.033 41.2918C575.232 41.2918 614.307 80.3555 614.307 128.541V219.631H705.422C753.622 219.631 792.696 258.695 792.696 306.88V547.942C792.696 549.47 791.458 550.708 789.929 550.708H306.968C258.768 550.708 219.694 511.645 219.694 463.459V372.328H128.578C105.408 372.328 83.1895 363.117 66.8186 346.726C50.4477 330.335 41.2684 308.108 41.3036 284.945V125.155C41.3036 78.8401 78.8629 41.2918 125.191 41.2918H527.033ZM369.832 330.59C350.283 330.59 334.046 336.862 321.11 349.407C308.178 361.951 301.714 377.737 301.714 396.768C301.714 415.8 308.182 431.586 321.11 444.13C334.046 456.674 350.283 462.947 369.832 462.947C389.463 462.947 405.749 456.674 418.677 444.13C431.613 431.586 438.077 415.8 438.077 396.768C438.077 377.737 431.613 361.951 418.677 349.407C405.745 336.862 389.463 330.59 369.832 330.59ZM658.82 330.718C641.662 330.718 628.325 334.389 618.809 341.726C609.289 349.064 604.53 359.391 604.53 372.704C604.53 383.968 608.136 392.821 615.348 399.262C622.563 405.708 633.724 410.04 648.832 412.257L656.131 413.281C663.557 414.392 668.72 415.564 671.624 416.803C674.527 418.038 675.977 419.85 675.977 422.241C675.977 427.704 670.128 430.434 658.435 430.434C642.133 430.434 627.363 426.507 614.133 418.657L600.177 449.634C613.663 458.425 632.997 462.819 658.179 462.819C676.448 462.819 690.702 458.933 700.945 451.17C711.188 443.403 716.31 432.61 716.31 418.785C716.31 408.289 712.832 399.816 705.872 393.374C698.917 386.933 688.694 382.688 675.209 380.64L665.99 379.232C662.149 378.633 659.311 378.166 657.477 377.824C655.639 377.485 653.636 376.969 651.455 376.288C649.279 375.606 647.787 374.818 646.974 373.918C646.164 373.022 645.759 371.936 645.759 370.655C645.759 365.535 650.625 362.975 660.356 362.975C672.904 363.062 686.691 366.303 701.713 372.704L712.853 341.47C702.353 337.461 693.238 334.666 685.514 333.084C677.79 331.507 668.894 330.718 658.82 330.718ZM535.388 330.59C518.144 330.59 505.683 336.99 498 349.791V334.046H459.588V459.619H499.665V392.032C499.665 384.265 501.586 378.356 505.427 374.302C509.268 370.247 514.134 368.223 520.023 368.223C526.256 368.223 531.122 370.23 534.62 374.24C538.118 378.249 539.87 383.968 539.87 391.392V459.619H579.946V377.184C579.946 363.017 575.742 351.711 567.332 343.263C558.927 334.814 548.275 330.59 535.388 330.59ZM369.832 367.967C377.77 367.967 384.3 370.656 389.422 376.032C394.544 381.408 397.104 388.32 397.104 396.768C397.104 405.217 394.544 412.129 389.422 417.505C384.3 422.881 377.77 425.569 369.832 425.569C361.976 425.569 355.491 422.881 350.369 417.505C345.248 412.129 342.687 405.217 342.687 396.768C342.687 388.32 345.248 381.408 350.369 376.032C355.491 370.656 361.98 367.967 369.832 367.967ZM315.613 140.648C304.601 140.648 294.614 143.571 285.651 149.418C276.688 155.261 269.691 163.218 264.652 173.289C259.617 183.36 257.098 194.497 257.098 206.698C257.098 225.387 262.666 241.107 273.809 253.866C284.949 266.625 298.839 273.005 315.485 273.005C330.936 273.005 342.972 267.372 351.592 256.108V269.676H390.388V144.104H351.592V157.673C342.885 146.321 330.895 140.648 315.613 140.648ZM154.988 144.104H111.326L159.981 269.676H205.692L253.707 144.104H211.325L183.028 226.027L154.988 144.104ZM494.291 140.648C477.047 140.648 464.586 147.048 456.903 159.849V144.104H418.491V269.676H458.568V202.09C458.568 194.323 460.489 188.414 464.33 184.359C468.171 180.305 473.037 178.281 478.926 178.281C485.159 178.281 490.025 180.288 493.523 184.298C497.022 188.307 498.773 194.026 498.773 201.45V269.676H538.85V187.242C538.85 173.074 534.645 161.769 526.24 153.32C517.83 144.872 507.178 140.648 494.291 140.648ZM325.088 178.025C332.939 178.025 339.383 180.734 344.422 186.156C349.457 191.573 351.976 198.465 351.976 206.826C351.976 215.188 349.461 222.079 344.422 227.501C339.387 232.919 332.939 235.627 325.088 235.627C317.149 235.627 310.706 232.898 305.753 227.435C300.805 221.972 298.327 215.105 298.327 206.826C298.327 198.547 300.801 191.68 305.753 186.218C310.706 180.755 317.149 178.025 325.088 178.025Z" fill="black"/>
</svg>
